<mxfile host="app.diagrams.net" modified="2022-03-17T04:09:25.911Z" agent="5.0 (X11; Linux x86_64) AppleWebKit/537.36 (KHTML, like Gecko) Chrome/92.0.4515.107 Safari/537.36" etag="y3m0Pss1_93ejY79z4h0" version="16.2.2" type="github">
  <diagram id="G-DcLaTEtYUUgJkHiJaH" name="Page-1">
    <mxGraphModel dx="1997" dy="1134" grid="0" gridSize="10" guides="1" tooltips="1" connect="1" arrows="1" fold="1" page="1" pageScale="1" pageWidth="827" pageHeight="1169" background="none" math="0" shadow="1">
      <root>
        <mxCell id="0" />
        <mxCell id="1" parent="0" />
        <mxCell id="NriwxtWmSjk2RqYd92z--25" value="" style="edgeStyle=orthogonalEdgeStyle;rounded=0;orthogonalLoop=1;jettySize=auto;html=1;" parent="1" source="NriwxtWmSjk2RqYd92z--23" target="NriwxtWmSjk2RqYd92z--24" edge="1">
          <mxGeometry relative="1" as="geometry" />
        </mxCell>
        <mxCell id="NriwxtWmSjk2RqYd92z--23" value="开始" style="rounded=1;whiteSpace=wrap;html=1;fillColor=#d5e8d4;strokeColor=#82b366;" parent="1" vertex="1">
          <mxGeometry x="330" y="1040" width="120" height="60" as="geometry" />
        </mxCell>
        <mxCell id="NriwxtWmSjk2RqYd92z--27" value="" style="edgeStyle=orthogonalEdgeStyle;rounded=0;orthogonalLoop=1;jettySize=auto;html=1;" parent="1" source="NriwxtWmSjk2RqYd92z--24" target="NriwxtWmSjk2RqYd92z--26" edge="1">
          <mxGeometry relative="1" as="geometry" />
        </mxCell>
        <mxCell id="NriwxtWmSjk2RqYd92z--24" value="条件" style="rhombus;whiteSpace=wrap;html=1;rounded=1;fillColor=#ffe6cc;strokeColor=#d79b00;" parent="1" vertex="1">
          <mxGeometry x="350" y="1170" width="80" height="80" as="geometry" />
        </mxCell>
        <mxCell id="NriwxtWmSjk2RqYd92z--26" value="" style="rounded=1;whiteSpace=wrap;html=1;fillColor=#d5e8d4;strokeColor=#82b366;" parent="1" vertex="1">
          <mxGeometry x="330" y="1300" width="120" height="60" as="geometry" />
        </mxCell>
        <mxCell id="NriwxtWmSjk2RqYd92z--28" value="" style="endArrow=classic;html=1;rounded=0;" parent="1" edge="1">
          <mxGeometry width="50" height="50" relative="1" as="geometry">
            <mxPoint x="430" y="1210" as="sourcePoint" />
            <mxPoint x="390" y="1270" as="targetPoint" />
            <Array as="points">
              <mxPoint x="480" y="1210" />
              <mxPoint x="480" y="1270" />
            </Array>
          </mxGeometry>
        </mxCell>
        <mxCell id="3SiNrMNRT5T9v97Z1VhM-42" value="" style="group" parent="1" vertex="1" connectable="0">
          <mxGeometry x="132" y="50" width="340" height="790" as="geometry" />
        </mxCell>
        <mxCell id="3SiNrMNRT5T9v97Z1VhM-12" value="" style="edgeStyle=orthogonalEdgeStyle;rounded=0;orthogonalLoop=1;jettySize=auto;html=1;fillColor=#f5f5f5;strokeColor=default;dashed=1;startArrow=none;entryX=0.5;entryY=0;entryDx=0;entryDy=0;strokeWidth=2;" parent="3SiNrMNRT5T9v97Z1VhM-42" source="3SiNrMNRT5T9v97Z1VhM-28" edge="1">
          <mxGeometry as="geometry">
            <mxPoint x="60" y="145" as="sourcePoint" />
            <mxPoint x="60" y="375" as="targetPoint" />
          </mxGeometry>
        </mxCell>
        <mxCell id="3SiNrMNRT5T9v97Z1VhM-13" value="" style="edgeStyle=orthogonalEdgeStyle;rounded=0;orthogonalLoop=1;jettySize=auto;html=1;dashed=1;strokeColor=default;strokeWidth=2;" parent="3SiNrMNRT5T9v97Z1VhM-42" target="3SiNrMNRT5T9v97Z1VhM-15" edge="1">
          <mxGeometry as="geometry">
            <mxPoint x="280" y="145" as="sourcePoint" />
          </mxGeometry>
        </mxCell>
        <mxCell id="3SiNrMNRT5T9v97Z1VhM-15" value="Do Preload" style="whiteSpace=wrap;html=1;strokeColor=default;fillColor=#d5e8d4;" parent="3SiNrMNRT5T9v97Z1VhM-42" vertex="1">
          <mxGeometry x="220" y="175" width="120" height="170" as="geometry" />
        </mxCell>
        <mxCell id="3SiNrMNRT5T9v97Z1VhM-18" value="" style="edgeStyle=orthogonalEdgeStyle;rounded=0;orthogonalLoop=1;jettySize=auto;html=1;dashed=1;exitX=0.5;exitY=1;exitDx=0;exitDy=0;strokeColor=default;strokeWidth=2;" parent="3SiNrMNRT5T9v97Z1VhM-42" source="3SiNrMNRT5T9v97Z1VhM-15" edge="1">
          <mxGeometry as="geometry">
            <mxPoint x="281" y="566" as="sourcePoint" />
            <mxPoint x="281" y="596" as="targetPoint" />
            <Array as="points">
              <mxPoint x="280" y="390" />
              <mxPoint x="118" y="390" />
              <mxPoint x="118" y="550" />
              <mxPoint x="281" y="550" />
            </Array>
          </mxGeometry>
        </mxCell>
        <mxCell id="3SiNrMNRT5T9v97Z1VhM-19" value="Chromium Init" style="whiteSpace=wrap;html=1;strokeColor=default;fillColor=#FFE6CC;gradientColor=#FF9999;" parent="3SiNrMNRT5T9v97Z1VhM-42" vertex="1">
          <mxGeometry y="375" width="120" height="190" as="geometry" />
        </mxCell>
        <mxCell id="3SiNrMNRT5T9v97Z1VhM-23" style="edgeStyle=orthogonalEdgeStyle;rounded=0;orthogonalLoop=1;jettySize=auto;html=1;dashed=1;strokeColor=default;strokeWidth=2;" parent="3SiNrMNRT5T9v97Z1VhM-42" edge="1">
          <mxGeometry as="geometry">
            <mxPoint x="59.5" y="631" as="targetPoint" />
            <mxPoint x="59.5" y="566" as="sourcePoint" />
          </mxGeometry>
        </mxCell>
        <mxCell id="3SiNrMNRT5T9v97Z1VhM-26" value="UI Thread" style="ellipse;whiteSpace=wrap;html=1;fillColor=#f5f5f5;fontColor=#333333;strokeColor=default;" parent="3SiNrMNRT5T9v97Z1VhM-42" vertex="1">
          <mxGeometry x="10" width="100" height="60" as="geometry" />
        </mxCell>
        <mxCell id="3SiNrMNRT5T9v97Z1VhM-28" value="Start Preload" style="whiteSpace=wrap;html=1;fillColor=#ffe6cc;strokeColor=#d79b00;" parent="3SiNrMNRT5T9v97Z1VhM-42" vertex="1">
          <mxGeometry y="102" width="120" height="23" as="geometry" />
        </mxCell>
        <mxCell id="3SiNrMNRT5T9v97Z1VhM-25" style="edgeStyle=orthogonalEdgeStyle;rounded=0;orthogonalLoop=1;jettySize=auto;html=1;exitX=0.5;exitY=1;exitDx=0;exitDy=0;entryX=0.5;entryY=0;entryDx=0;entryDy=0;dashed=1;strokeColor=default;strokeWidth=2;" parent="3SiNrMNRT5T9v97Z1VhM-42" source="3SiNrMNRT5T9v97Z1VhM-26" target="3SiNrMNRT5T9v97Z1VhM-28" edge="1">
          <mxGeometry as="geometry" />
        </mxCell>
        <mxCell id="3SiNrMNRT5T9v97Z1VhM-29" value="Worker&lt;br&gt;Start" style="ellipse;whiteSpace=wrap;html=1;fillColor=#f5f5f5;fontColor=#333333;strokeColor=default;" parent="3SiNrMNRT5T9v97Z1VhM-42" vertex="1">
          <mxGeometry x="230" y="83.5" width="100" height="60" as="geometry" />
        </mxCell>
        <mxCell id="3SiNrMNRT5T9v97Z1VhM-27" style="edgeStyle=orthogonalEdgeStyle;rounded=0;orthogonalLoop=1;jettySize=auto;html=1;entryX=0;entryY=0.5;entryDx=0;entryDy=0;strokeColor=default;" parent="3SiNrMNRT5T9v97Z1VhM-42" source="3SiNrMNRT5T9v97Z1VhM-28" target="3SiNrMNRT5T9v97Z1VhM-29" edge="1">
          <mxGeometry as="geometry" />
        </mxCell>
        <mxCell id="3SiNrMNRT5T9v97Z1VhM-30" value="Worker&lt;br&gt;End" style="ellipse;whiteSpace=wrap;html=1;fillColor=#f5f5f5;fontColor=#333333;strokeColor=default;" parent="3SiNrMNRT5T9v97Z1VhM-42" vertex="1">
          <mxGeometry x="230" y="598" width="100" height="60" as="geometry" />
        </mxCell>
        <mxCell id="3SiNrMNRT5T9v97Z1VhM-39" value="First&amp;nbsp;New&lt;br&gt;WebView" style="whiteSpace=wrap;html=1;strokeColor=default;fillColor=#FF9999;gradientColor=#FF0000;" parent="3SiNrMNRT5T9v97Z1VhM-42" vertex="1">
          <mxGeometry y="630" width="120" height="160" as="geometry" />
        </mxCell>
        <mxCell id="3SiNrMNRT5T9v97Z1VhM-43" value="" style="group" parent="1" vertex="1" connectable="0">
          <mxGeometry x="616" y="50" width="340" height="790" as="geometry" />
        </mxCell>
        <mxCell id="NriwxtWmSjk2RqYd92z--41" value="" style="edgeStyle=orthogonalEdgeStyle;rounded=0;orthogonalLoop=1;jettySize=auto;html=1;dashed=1;strokeWidth=2;" parent="3SiNrMNRT5T9v97Z1VhM-43" target="NriwxtWmSjk2RqYd92z--40" edge="1">
          <mxGeometry as="geometry">
            <mxPoint x="280" y="145" as="sourcePoint" />
          </mxGeometry>
        </mxCell>
        <mxCell id="NriwxtWmSjk2RqYd92z--40" value="Do Preload" style="whiteSpace=wrap;html=1;strokeColor=#82b366;fillColor=#d5e8d4;" parent="3SiNrMNRT5T9v97Z1VhM-43" vertex="1">
          <mxGeometry x="220" y="175" width="120" height="170" as="geometry" />
        </mxCell>
        <mxCell id="NriwxtWmSjk2RqYd92z--55" style="edgeStyle=orthogonalEdgeStyle;rounded=0;orthogonalLoop=1;jettySize=auto;html=1;entryX=1;entryY=0.5;entryDx=0;entryDy=0;" parent="3SiNrMNRT5T9v97Z1VhM-43" target="NriwxtWmSjk2RqYd92z--52" edge="1">
          <mxGeometry as="geometry">
            <mxPoint x="160" y="482" as="targetPoint" />
            <Array as="points">
              <mxPoint x="190" y="550" />
              <mxPoint x="190" y="550" />
            </Array>
            <mxPoint x="220" y="550" as="sourcePoint" />
          </mxGeometry>
        </mxCell>
        <mxCell id="3SiNrMNRT5T9v97Z1VhM-10" value="" style="edgeStyle=orthogonalEdgeStyle;rounded=0;orthogonalLoop=1;jettySize=auto;html=1;dashed=1;strokeWidth=2;" parent="3SiNrMNRT5T9v97Z1VhM-43" edge="1">
          <mxGeometry as="geometry">
            <mxPoint x="281" y="566" as="sourcePoint" />
            <mxPoint x="281" y="596" as="targetPoint" />
          </mxGeometry>
        </mxCell>
        <mxCell id="NriwxtWmSjk2RqYd92z--42" value="Chromium Init" style="whiteSpace=wrap;html=1;strokeColor=#82b366;fillColor=#d5e8d4;" parent="3SiNrMNRT5T9v97Z1VhM-43" vertex="1">
          <mxGeometry x="220" y="375" width="120" height="190" as="geometry" />
        </mxCell>
        <mxCell id="NriwxtWmSjk2RqYd92z--51" style="edgeStyle=orthogonalEdgeStyle;rounded=0;orthogonalLoop=1;jettySize=auto;html=1;entryX=0.5;entryY=0;entryDx=0;entryDy=0;dashed=1;strokeWidth=2;" parent="3SiNrMNRT5T9v97Z1VhM-43" source="NriwxtWmSjk2RqYd92z--40" target="NriwxtWmSjk2RqYd92z--42" edge="1">
          <mxGeometry as="geometry" />
        </mxCell>
        <mxCell id="NriwxtWmSjk2RqYd92z--45" value="Get Tls" style="rounded=0;whiteSpace=wrap;html=1;fillColor=#ffe6cc;strokeColor=#d79b00;" parent="3SiNrMNRT5T9v97Z1VhM-43" vertex="1">
          <mxGeometry y="375" width="120" height="20" as="geometry" />
        </mxCell>
        <mxCell id="NriwxtWmSjk2RqYd92z--50" style="edgeStyle=orthogonalEdgeStyle;rounded=0;orthogonalLoop=1;jettySize=auto;html=1;exitX=0;exitY=0.5;exitDx=0;exitDy=0;entryX=1;entryY=0.5;entryDx=0;entryDy=0;" parent="3SiNrMNRT5T9v97Z1VhM-43" source="NriwxtWmSjk2RqYd92z--42" target="NriwxtWmSjk2RqYd92z--45" edge="1">
          <mxGeometry as="geometry">
            <mxPoint x="150" y="455" as="targetPoint" />
            <Array as="points">
              <mxPoint x="220" y="385" />
            </Array>
          </mxGeometry>
        </mxCell>
        <mxCell id="NriwxtWmSjk2RqYd92z--48" value="" style="endArrow=classic;html=1;rounded=0;exitX=0.5;exitY=1;exitDx=0;exitDy=0;entryX=0;entryY=0.206;entryDx=0;entryDy=0;entryPerimeter=0;" parent="3SiNrMNRT5T9v97Z1VhM-43" source="NriwxtWmSjk2RqYd92z--45" target="NriwxtWmSjk2RqYd92z--42" edge="1">
          <mxGeometry width="50" height="50" as="geometry">
            <mxPoint x="40" y="455" as="sourcePoint" />
            <mxPoint x="160" y="408" as="targetPoint" />
            <Array as="points">
              <mxPoint x="60" y="414" />
            </Array>
          </mxGeometry>
        </mxCell>
        <mxCell id="NriwxtWmSjk2RqYd92z--52" value="Set Tls" style="rounded=0;whiteSpace=wrap;html=1;fillColor=#ffe6cc;strokeColor=#d79b00;" parent="3SiNrMNRT5T9v97Z1VhM-43" vertex="1">
          <mxGeometry y="540" width="120" height="20" as="geometry" />
        </mxCell>
        <mxCell id="NriwxtWmSjk2RqYd92z--57" style="edgeStyle=orthogonalEdgeStyle;rounded=0;orthogonalLoop=1;jettySize=auto;html=1;entryX=0.5;entryY=0;entryDx=0;entryDy=0;dashed=1;strokeWidth=2;" parent="3SiNrMNRT5T9v97Z1VhM-43" source="NriwxtWmSjk2RqYd92z--45" target="NriwxtWmSjk2RqYd92z--52" edge="1">
          <mxGeometry as="geometry" />
        </mxCell>
        <mxCell id="3SiNrMNRT5T9v97Z1VhM-2" value="UI Thread" style="ellipse;whiteSpace=wrap;html=1;fillColor=#f5f5f5;fontColor=#333333;strokeColor=#666666;" parent="3SiNrMNRT5T9v97Z1VhM-43" vertex="1">
          <mxGeometry x="10" width="100" height="60" as="geometry" />
        </mxCell>
        <mxCell id="NriwxtWmSjk2RqYd92z--38" value="Start Preload" style="whiteSpace=wrap;html=1;fillColor=#ffe6cc;strokeColor=#d79b00;" parent="3SiNrMNRT5T9v97Z1VhM-43" vertex="1">
          <mxGeometry y="102" width="120" height="23" as="geometry" />
        </mxCell>
        <mxCell id="NriwxtWmSjk2RqYd92z--39" value="" style="edgeStyle=orthogonalEdgeStyle;rounded=0;orthogonalLoop=1;jettySize=auto;html=1;fillColor=#f5f5f5;strokeColor=#666666;dashed=1;startArrow=none;entryX=0.5;entryY=0;entryDx=0;entryDy=0;strokeWidth=2;" parent="3SiNrMNRT5T9v97Z1VhM-43" source="NriwxtWmSjk2RqYd92z--38" target="NriwxtWmSjk2RqYd92z--45" edge="1">
          <mxGeometry as="geometry">
            <mxPoint x="60" y="145" as="sourcePoint" />
            <mxPoint x="60" y="195" as="targetPoint" />
          </mxGeometry>
        </mxCell>
        <mxCell id="3SiNrMNRT5T9v97Z1VhM-7" style="edgeStyle=orthogonalEdgeStyle;rounded=0;orthogonalLoop=1;jettySize=auto;html=1;exitX=0.5;exitY=1;exitDx=0;exitDy=0;entryX=0.5;entryY=0;entryDx=0;entryDy=0;dashed=1;strokeWidth=2;" parent="3SiNrMNRT5T9v97Z1VhM-43" source="3SiNrMNRT5T9v97Z1VhM-2" target="NriwxtWmSjk2RqYd92z--38" edge="1">
          <mxGeometry as="geometry" />
        </mxCell>
        <mxCell id="3SiNrMNRT5T9v97Z1VhM-5" value="Worker&lt;br&gt;Start" style="ellipse;whiteSpace=wrap;html=1;fillColor=#f5f5f5;fontColor=#333333;strokeColor=#666666;" parent="3SiNrMNRT5T9v97Z1VhM-43" vertex="1">
          <mxGeometry x="230" y="83.5" width="100" height="60" as="geometry" />
        </mxCell>
        <mxCell id="3SiNrMNRT5T9v97Z1VhM-11" value="Worker&lt;br&gt;End" style="ellipse;whiteSpace=wrap;html=1;fillColor=#f5f5f5;fontColor=#333333;strokeColor=#666666;" parent="3SiNrMNRT5T9v97Z1VhM-43" vertex="1">
          <mxGeometry x="230" y="598" width="100" height="60" as="geometry" />
        </mxCell>
        <mxCell id="3SiNrMNRT5T9v97Z1VhM-6" style="edgeStyle=orthogonalEdgeStyle;rounded=0;orthogonalLoop=1;jettySize=auto;html=1;entryX=0;entryY=0.5;entryDx=0;entryDy=0;" parent="3SiNrMNRT5T9v97Z1VhM-43" source="NriwxtWmSjk2RqYd92z--38" target="3SiNrMNRT5T9v97Z1VhM-5" edge="1">
          <mxGeometry as="geometry" />
        </mxCell>
        <mxCell id="3SiNrMNRT5T9v97Z1VhM-41" value="First New&lt;br&gt;WebView" style="whiteSpace=wrap;html=1;strokeColor=default;fillColor=#FFE6CC;gradientColor=#FF9999;" parent="3SiNrMNRT5T9v97Z1VhM-43" vertex="1">
          <mxGeometry y="630" width="120" height="160" as="geometry" />
        </mxCell>
        <mxCell id="NriwxtWmSjk2RqYd92z--58" style="edgeStyle=orthogonalEdgeStyle;rounded=0;orthogonalLoop=1;jettySize=auto;html=1;dashed=1;strokeWidth=2;entryX=0.5;entryY=0;entryDx=0;entryDy=0;" parent="3SiNrMNRT5T9v97Z1VhM-43" source="NriwxtWmSjk2RqYd92z--52" target="3SiNrMNRT5T9v97Z1VhM-41" edge="1">
          <mxGeometry as="geometry">
            <mxPoint x="60" y="625" as="targetPoint" />
          </mxGeometry>
        </mxCell>
        <mxCell id="9rTwDFBys-Otow7k1hx8-45" value="" style="group" vertex="1" connectable="0" parent="1">
          <mxGeometry x="1170" y="60" width="352" height="821" as="geometry" />
        </mxCell>
        <mxCell id="9rTwDFBys-Otow7k1hx8-20" value="First New WebView" style="whiteSpace=wrap;html=1;strokeColor=default;fillColor=#FFE6CC;gradientColor=#FFCE9F;" vertex="1" parent="9rTwDFBys-Otow7k1hx8-45">
          <mxGeometry x="10" y="787" width="124" height="27" as="geometry" />
        </mxCell>
        <mxCell id="9rTwDFBys-Otow7k1hx8-21" style="edgeStyle=orthogonalEdgeStyle;rounded=0;orthogonalLoop=1;jettySize=auto;html=1;dashed=1;strokeWidth=2;entryX=0.5;entryY=0;entryDx=0;entryDy=0;" edge="1" parent="9rTwDFBys-Otow7k1hx8-45" target="9rTwDFBys-Otow7k1hx8-22">
          <mxGeometry x="13" as="geometry">
            <mxPoint x="73" y="610" as="targetPoint" />
            <mxPoint x="73" y="560" as="sourcePoint" />
          </mxGeometry>
        </mxCell>
        <mxCell id="9rTwDFBys-Otow7k1hx8-2" value="" style="edgeStyle=orthogonalEdgeStyle;rounded=0;orthogonalLoop=1;jettySize=auto;html=1;dashed=1;strokeWidth=2;" edge="1" parent="9rTwDFBys-Otow7k1hx8-45" target="9rTwDFBys-Otow7k1hx8-3">
          <mxGeometry x="12" as="geometry">
            <mxPoint x="292" y="145" as="sourcePoint" />
          </mxGeometry>
        </mxCell>
        <mxCell id="9rTwDFBys-Otow7k1hx8-3" value="Do Preload" style="whiteSpace=wrap;html=1;strokeColor=#82b366;fillColor=#d5e8d4;" vertex="1" parent="9rTwDFBys-Otow7k1hx8-45">
          <mxGeometry x="232" y="175" width="120" height="170" as="geometry" />
        </mxCell>
        <mxCell id="9rTwDFBys-Otow7k1hx8-4" style="edgeStyle=orthogonalEdgeStyle;rounded=0;orthogonalLoop=1;jettySize=auto;html=1;entryX=1;entryY=0.5;entryDx=0;entryDy=0;" edge="1" parent="9rTwDFBys-Otow7k1hx8-45" target="9rTwDFBys-Otow7k1hx8-11">
          <mxGeometry x="12" as="geometry">
            <mxPoint x="172" y="482" as="targetPoint" />
            <Array as="points">
              <mxPoint x="202" y="550" />
              <mxPoint x="202" y="550" />
            </Array>
            <mxPoint x="232" y="550" as="sourcePoint" />
          </mxGeometry>
        </mxCell>
        <mxCell id="9rTwDFBys-Otow7k1hx8-5" value="" style="edgeStyle=orthogonalEdgeStyle;rounded=0;orthogonalLoop=1;jettySize=auto;html=1;dashed=1;strokeWidth=2;" edge="1" parent="9rTwDFBys-Otow7k1hx8-45">
          <mxGeometry x="12" as="geometry">
            <mxPoint x="293" y="566" as="sourcePoint" />
            <mxPoint x="293" y="596" as="targetPoint" />
          </mxGeometry>
        </mxCell>
        <mxCell id="9rTwDFBys-Otow7k1hx8-6" value="Chromium Init" style="whiteSpace=wrap;html=1;strokeColor=#82b366;fillColor=#d5e8d4;" vertex="1" parent="9rTwDFBys-Otow7k1hx8-45">
          <mxGeometry x="232" y="375" width="120" height="190" as="geometry" />
        </mxCell>
        <mxCell id="9rTwDFBys-Otow7k1hx8-7" style="edgeStyle=orthogonalEdgeStyle;rounded=0;orthogonalLoop=1;jettySize=auto;html=1;entryX=0.5;entryY=0;entryDx=0;entryDy=0;dashed=1;strokeWidth=2;" edge="1" parent="9rTwDFBys-Otow7k1hx8-45" source="9rTwDFBys-Otow7k1hx8-3" target="9rTwDFBys-Otow7k1hx8-6">
          <mxGeometry x="12" as="geometry" />
        </mxCell>
        <mxCell id="9rTwDFBys-Otow7k1hx8-8" value="Get Tls" style="rounded=0;whiteSpace=wrap;html=1;fillColor=#ffe6cc;strokeColor=#d79b00;" vertex="1" parent="9rTwDFBys-Otow7k1hx8-45">
          <mxGeometry x="12" y="375" width="120" height="20" as="geometry" />
        </mxCell>
        <mxCell id="9rTwDFBys-Otow7k1hx8-9" style="edgeStyle=orthogonalEdgeStyle;rounded=0;orthogonalLoop=1;jettySize=auto;html=1;exitX=0;exitY=0.5;exitDx=0;exitDy=0;entryX=1;entryY=0.5;entryDx=0;entryDy=0;" edge="1" parent="9rTwDFBys-Otow7k1hx8-45" source="9rTwDFBys-Otow7k1hx8-6" target="9rTwDFBys-Otow7k1hx8-8">
          <mxGeometry x="12" as="geometry">
            <mxPoint x="162" y="455" as="targetPoint" />
            <Array as="points">
              <mxPoint x="232" y="385" />
            </Array>
          </mxGeometry>
        </mxCell>
        <mxCell id="9rTwDFBys-Otow7k1hx8-10" value="" style="endArrow=classic;html=1;rounded=0;exitX=0.5;exitY=1;exitDx=0;exitDy=0;entryX=0;entryY=0.206;entryDx=0;entryDy=0;entryPerimeter=0;" edge="1" parent="9rTwDFBys-Otow7k1hx8-45" source="9rTwDFBys-Otow7k1hx8-8" target="9rTwDFBys-Otow7k1hx8-6">
          <mxGeometry x="12" width="50" height="50" as="geometry">
            <mxPoint x="52" y="455" as="sourcePoint" />
            <mxPoint x="172" y="408" as="targetPoint" />
            <Array as="points">
              <mxPoint x="72" y="414" />
            </Array>
          </mxGeometry>
        </mxCell>
        <mxCell id="9rTwDFBys-Otow7k1hx8-11" value="Set Tls" style="rounded=0;whiteSpace=wrap;html=1;fillColor=#ffe6cc;strokeColor=#d79b00;" vertex="1" parent="9rTwDFBys-Otow7k1hx8-45">
          <mxGeometry x="12" y="540" width="120" height="20" as="geometry" />
        </mxCell>
        <mxCell id="9rTwDFBys-Otow7k1hx8-12" style="edgeStyle=orthogonalEdgeStyle;rounded=0;orthogonalLoop=1;jettySize=auto;html=1;entryX=0.5;entryY=0;entryDx=0;entryDy=0;dashed=1;strokeWidth=2;" edge="1" parent="9rTwDFBys-Otow7k1hx8-45" source="9rTwDFBys-Otow7k1hx8-8" target="9rTwDFBys-Otow7k1hx8-11">
          <mxGeometry x="12" as="geometry" />
        </mxCell>
        <mxCell id="9rTwDFBys-Otow7k1hx8-13" value="UI Thread" style="ellipse;whiteSpace=wrap;html=1;fillColor=#f5f5f5;fontColor=#333333;strokeColor=#666666;" vertex="1" parent="9rTwDFBys-Otow7k1hx8-45">
          <mxGeometry x="22" width="100" height="60" as="geometry" />
        </mxCell>
        <mxCell id="9rTwDFBys-Otow7k1hx8-14" value="Start Preload" style="whiteSpace=wrap;html=1;fillColor=#ffe6cc;strokeColor=#d79b00;" vertex="1" parent="9rTwDFBys-Otow7k1hx8-45">
          <mxGeometry x="12" y="102" width="120" height="23" as="geometry" />
        </mxCell>
        <mxCell id="9rTwDFBys-Otow7k1hx8-15" value="" style="edgeStyle=orthogonalEdgeStyle;rounded=0;orthogonalLoop=1;jettySize=auto;html=1;fillColor=#f5f5f5;strokeColor=#666666;dashed=1;startArrow=none;entryX=0.5;entryY=0;entryDx=0;entryDy=0;strokeWidth=2;" edge="1" parent="9rTwDFBys-Otow7k1hx8-45" source="9rTwDFBys-Otow7k1hx8-14" target="9rTwDFBys-Otow7k1hx8-8">
          <mxGeometry x="12" as="geometry">
            <mxPoint x="72" y="145" as="sourcePoint" />
            <mxPoint x="72" y="195" as="targetPoint" />
          </mxGeometry>
        </mxCell>
        <mxCell id="9rTwDFBys-Otow7k1hx8-16" style="edgeStyle=orthogonalEdgeStyle;rounded=0;orthogonalLoop=1;jettySize=auto;html=1;exitX=0.5;exitY=1;exitDx=0;exitDy=0;entryX=0.5;entryY=0;entryDx=0;entryDy=0;dashed=1;strokeWidth=2;" edge="1" parent="9rTwDFBys-Otow7k1hx8-45" source="9rTwDFBys-Otow7k1hx8-13" target="9rTwDFBys-Otow7k1hx8-14">
          <mxGeometry x="12" as="geometry" />
        </mxCell>
        <mxCell id="9rTwDFBys-Otow7k1hx8-17" value="Worker&lt;br&gt;Start" style="ellipse;whiteSpace=wrap;html=1;fillColor=#f5f5f5;fontColor=#333333;strokeColor=#666666;" vertex="1" parent="9rTwDFBys-Otow7k1hx8-45">
          <mxGeometry x="242" y="83.5" width="100" height="60" as="geometry" />
        </mxCell>
        <mxCell id="9rTwDFBys-Otow7k1hx8-18" value="Worker&lt;br&gt;End" style="ellipse;whiteSpace=wrap;html=1;fillColor=#f5f5f5;fontColor=#333333;strokeColor=#666666;" vertex="1" parent="9rTwDFBys-Otow7k1hx8-45">
          <mxGeometry x="242" y="598" width="100" height="60" as="geometry" />
        </mxCell>
        <mxCell id="9rTwDFBys-Otow7k1hx8-19" style="edgeStyle=orthogonalEdgeStyle;rounded=0;orthogonalLoop=1;jettySize=auto;html=1;entryX=0;entryY=0.5;entryDx=0;entryDy=0;" edge="1" parent="9rTwDFBys-Otow7k1hx8-45" source="9rTwDFBys-Otow7k1hx8-14" target="9rTwDFBys-Otow7k1hx8-17">
          <mxGeometry x="12" as="geometry" />
        </mxCell>
        <mxCell id="9rTwDFBys-Otow7k1hx8-22" value="Task 1" style="rounded=0;whiteSpace=wrap;html=1;fillColor=#ffe6cc;strokeColor=#d79b00;" vertex="1" parent="9rTwDFBys-Otow7k1hx8-45">
          <mxGeometry x="12" y="619" width="120" height="20" as="geometry" />
        </mxCell>
        <mxCell id="9rTwDFBys-Otow7k1hx8-28" value="Task 2" style="rounded=0;whiteSpace=wrap;html=1;fillColor=#ffe6cc;strokeColor=#d79b00;" vertex="1" parent="9rTwDFBys-Otow7k1hx8-45">
          <mxGeometry x="12" y="666" width="120" height="20" as="geometry" />
        </mxCell>
        <mxCell id="9rTwDFBys-Otow7k1hx8-32" value="Task ..." style="rounded=0;whiteSpace=wrap;html=1;fillColor=#ffe6cc;strokeColor=#d79b00;" vertex="1" parent="9rTwDFBys-Otow7k1hx8-45">
          <mxGeometry x="12" y="712" width="120" height="20" as="geometry" />
        </mxCell>
        <mxCell id="9rTwDFBys-Otow7k1hx8-37" value="" style="edgeStyle=orthogonalEdgeStyle;rounded=0;orthogonalLoop=1;jettySize=auto;html=1;dashed=1;strokeWidth=2;" edge="1" parent="9rTwDFBys-Otow7k1hx8-45">
          <mxGeometry x="-209.5" y="115" as="geometry">
            <mxPoint x="72" y="690" as="sourcePoint" />
            <mxPoint x="71.5" y="711" as="targetPoint" />
          </mxGeometry>
        </mxCell>
        <mxCell id="9rTwDFBys-Otow7k1hx8-39" value="" style="edgeStyle=orthogonalEdgeStyle;rounded=0;orthogonalLoop=1;jettySize=auto;html=1;dashed=1;strokeWidth=2;" edge="1" parent="9rTwDFBys-Otow7k1hx8-45">
          <mxGeometry x="-210" y="67" as="geometry">
            <mxPoint x="71" y="643" as="sourcePoint" />
            <mxPoint x="71" y="663" as="targetPoint" />
          </mxGeometry>
        </mxCell>
        <mxCell id="9rTwDFBys-Otow7k1hx8-43" value="" style="edgeStyle=orthogonalEdgeStyle;rounded=0;orthogonalLoop=1;jettySize=auto;html=1;dashed=1;strokeWidth=2;" edge="1" parent="9rTwDFBys-Otow7k1hx8-45">
          <mxGeometry x="-209" y="172" as="geometry">
            <mxPoint x="72" y="738" as="sourcePoint" />
            <mxPoint x="72" y="787" as="targetPoint" />
          </mxGeometry>
        </mxCell>
        <mxCell id="9rTwDFBys-Otow7k1hx8-44" value="" style="rounded=0;whiteSpace=wrap;html=1;gradientColor=#FFCE9F;fillColor=none;dashed=1;strokeWidth=2;" vertex="1" parent="9rTwDFBys-Otow7k1hx8-45">
          <mxGeometry y="600" width="150" height="150" as="geometry" />
        </mxCell>
      </root>
    </mxGraphModel>
  </diagram>
</mxfile>
